HIERARCHY
ROOT root
{
	OFFSET 0.000000 0.000000 0.000000
	CHANNELS 6 Xposition Yposition Zposition Zrotation Yrotation Xrotation
	JOINT lhip
	{
		OFFSET 0.058581 -0.082280 -0.017664
		CHANNELS 3 Zrotation Yrotation Xrotation
		JOINT lknee
		{
			OFFSET 0.043451 -0.386469 0.008037
			CHANNELS 3 Zrotation Yrotation Xrotation
			JOINT lankle
			{
				OFFSET -0.014790 -0.426874 -0.037428
				CHANNELS 3 Zrotation Yrotation Xrotation
				JOINT ltoe
				{
					OFFSET 0.041054 -0.060286 0.122042
					CHANNELS 3 Zrotation Yrotation Xrotation
					End Site
					{
						OFFSET 0.000000 0.000000 0.000000
					}
				}
			}
		}
	}
	JOINT rhip
	{
		OFFSET -0.060310 -0.090513 -0.013543
		CHANNELS 3 Zrotation Yrotation Xrotation
		JOINT rknee
		{
			OFFSET -0.043257 -0.383688 -0.004843
			CHANNELS 3 Zrotation Yrotation Xrotation
			JOINT rankle
			{
				OFFSET 0.019056 -0.420046 -0.034562
				CHANNELS 3 Zrotation Yrotation Xrotation
				JOINT rtoe
				{
					OFFSET -0.034840 -0.062106 0.130323
					CHANNELS 3 Zrotation Yrotation Xrotation
					End Site
					{
						OFFSET 0.000000 0.000000 0.000000
					}
				}
			}
		}
	}
	JOINT lowerback
	{
		OFFSET 0.004439 0.124404 -0.038385
		CHANNELS 3 Zrotation Yrotation Xrotation
		JOINT upperback
		{
			OFFSET 0.004488 0.137956 0.026820
			CHANNELS 3 Zrotation Yrotation Xrotation
			JOINT chest
			{
				OFFSET -0.002265 0.056032 0.002855
				CHANNELS 3 Zrotation Yrotation Xrotation
				JOINT lowerneck
				{
					OFFSET -0.013390 0.211636 -0.033468
					CHANNELS 3 Zrotation Yrotation Xrotation
					JOINT upperneck
					{
						OFFSET 0.010113 0.088937 0.050410
						CHANNELS 3 Zrotation Yrotation Xrotation
						End Site
						{
							OFFSET 0.000000 0.000000 0.000000
						}
					}
				}
				JOINT lclavicle
				{
					OFFSET 0.071702 0.114000 -0.018898
					CHANNELS 3 Zrotation Yrotation Xrotation
					JOINT lshoulder
					{
						OFFSET 0.122921 0.045205 -0.019046
						CHANNELS 3 Zrotation Yrotation Xrotation
						JOINT lelbow
						{
							OFFSET 0.255332 -0.015649 -0.022946
							CHANNELS 3 Zrotation Yrotation Xrotation
							JOINT lwrist
							{
								OFFSET 0.265709 0.012698 -0.007375
								CHANNELS 3 Zrotation Yrotation Xrotation
								End Site
								{
									OFFSET 0.000000 0.000000 0.000000
								}
							}
						}
					}
				}
				JOINT rclavicle
				{
					OFFSET -0.082954 0.112472 -0.023707
					CHANNELS 3 Zrotation Yrotation Xrotation
					JOINT rshoulder
					{
						OFFSET -0.113228 0.046853 -0.008472
						CHANNELS 3 Zrotation Yrotation Xrotation
						JOINT relbow
						{
							OFFSET -0.260127 -0.014369 -0.031269
							CHANNELS 3 Zrotation Yrotation Xrotation
							JOINT rwrist
							{
								OFFSET -0.269108 0.006794 -0.006027
								CHANNELS 3 Zrotation Yrotation Xrotation
								End Site
								{
									OFFSET 0.000000 0.000000 0.000000
								}
							}
						}
					}
				}
			}
		}
	}
}
MOTION
Frames: 10
Frame Time: 0.033333
-0.874379 0.240770 1.000733 73.517110 -2.371923 91.377488 -2.326051 -5.348528 -25.193317 -0.053676 4.155507 11.848049 3.016590 13.834165 -5.513244 0.000000 -0.000000 0.000000 2.914538 -4.706083 13.396990 1.037645 -6.797737 -1.820141 -2.381102 -13.631371 -21.337671 0.000000 -0.000000 0.000000 1.311356 7.375857 -0.032542 -0.242535 -4.489230 10.404432 1.167408 0.211194 -5.098947 -3.376780 28.351241 6.858210 -5.045859 21.504290 -17.531620 -10.423889 6.408789 3.711651 -62.527155 3.311991 14.394521 44.156309 -82.321282 -18.389493 -43.920724 -11.121287 19.500934 8.103666 -0.675224 7.485254 67.451242 1.021503 18.364548 -11.881447 14.160479 14.583557 45.773513 9.440419 -3.184598 
-0.881768 0.242284 1.003059 72.923979 -2.551411 91.098834 -2.913082 -5.526290 -25.002075 -0.763472 4.061103 13.980677 2.128137 13.313951 -5.570748 0.000000 -0.000000 0.000000 2.591550 -4.456830 13.214216 1.115810 -6.704251 -1.864833 -2.416947 -13.159470 -20.861194 0.000000 -0.000000 0.000000 1.594187 7.316935 -0.196641 -0.302524 -4.372760 10.749411 1.121155 0.209475 -5.102906 -4.179113 28.242538 5.897974 -5.757990 21.458349 -18.526778 -10.654383 6.151834 3.506049 -62.891731 3.607678 13.992178 49.043441 -81.414643 -22.039992 -39.405057 -12.755030 19.450753 7.780401 -0.484566 7.037033 66.219146 1.851131 16.624518 -11.924070 16.129426 9.992745 39.018594 12.285795 -4.598159 
-0.888180 0.244190 1.004933 72.222861 -2.599932 90.863085 -3.489270 -6.515760 -24.510080 -1.441468 2.798748 16.056592 1.828405 12.085742 -5.070636 0.000000 -0.000000 0.000000 2.379344 -4.117942 13.111632 1.200514 -6.475161 -2.071151 -2.585243 -12.841130 -20.326693 0.000000 -0.000000 0.000000 2.103867 7.285909 -0.110943 -0.317752 -4.250178 11.167727 1.024434 0.246442 -5.226904 -5.372511 28.114878 4.758355 -6.573216 21.450828 -19.460486 -10.908666 5.910784 3.281779 -63.734933 4.056596 13.807159 53.928920 -80.278625 -25.945796 -34.888864 -14.861355 17.518657 7.597624 -0.161248 6.581938 65.176096 3.016434 15.194731 -12.935339 18.354735 4.186312 31.296235 14.925202 -7.645475 
-0.893619 0.246307 1.006133 71.456868 -2.593128 90.778843 -3.990224 -7.638403 -23.857554 -1.735564 1.487011 16.905401 2.548889 11.382160 -4.771797 0.000000 -0.000000 0.000000 2.247989 -3.814974 13.046359 1.228656 -6.168076 -2.532099 -2.529297 -12.568714 -19.705247 0.000000 -0.000000 0.000000 2.504780 7.315767 -0.067728 -0.257301 -4.180928 11.560552 0.911130 0.273305 -5.318461 -6.382481 28.062950 3.612506 -7.199194 21.538443 -20.162655 -10.779716 5.698996 3.256348 -65.082343 4.453765 13.710112 58.098513 -79.514372 -28.806963 -31.374491 -16.492305 15.105290 7.358139 0.151168 6.222546 64.767049 4.585933 14.160450 -15.195383 20.784612 -1.246193 24.394367 16.470118 -10.920685 
-0.897106 0.247599 1.007154 70.343737 -2.619284 90.949377 -4.390300 -7.582162 -23.032723 -1.110613 1.643641 15.529692 2.955450 11.494465 -4.577125 0.000000 -0.000000 0.000000 2.057048 -3.533771 12.829051 1.185124 -5.871986 -2.959947 -2.235742 -12.015196 -19.331842 0.000000 -0.000000 0.000000 2.563496 7.383650 -0.482742 -0.160731 -3.981729 12.030829 0.790318 0.351891 -5.423979 -6.785199 28.148058 2.993840 -7.656253 21.683226 -20.863077 -10.325479 5.669196 3.404288 -66.256992 4.815416 13.896577 61.249680 -79.562801 -30.789289 -29.297475 -17.474385 13.140767 6.982848 0.318765 5.906622 64.931983 6.514982 13.708944 -17.941560 22.602360 -5.563212 19.919560 17.223034 -13.769964 
-0.898573 0.248186 1.007667 68.956974 -2.717735 91.319290 -4.604236 -6.719933 -22.024888 -0.399648 2.508176 12.670631 3.136725 11.369572 -3.646054 0.000000 -0.000000 0.000000 1.678358 -3.273329 12.374688 1.189176 -5.575488 -3.074152 -1.927752 -11.173386 -19.283310 0.000000 -0.000000 0.000000 2.452826 7.379548 -1.137232 -0.180447 -3.692794 12.473967 0.623747 0.483816 -5.647664 -6.752206 28.426977 2.908021 -8.016210 21.946501 -21.603991 -9.852824 5.712564 3.569065 -66.770308 5.315146 14.256281 64.391813 -80.428982 -32.957345 -28.850542 -18.053157 11.910107 6.482926 0.392504 5.554034 65.481643 8.650542 13.728656 -20.282491 23.849437 -9.004558 17.783550 17.530378 -16.521314 
-0.899103 0.248712 1.007522 68.071256 -2.635919 91.782830 -4.511377 -5.876017 -21.416452 -0.293763 3.130800 10.457198 3.259137 10.668500 -2.836637 0.000000 -0.000000 0.000000 1.564898 -3.032666 11.735896 1.222763 -5.480313 -2.906497 -1.739842 -10.561172 -19.454311 0.000000 -0.000000 0.000000 2.554106 7.139942 -1.508128 -0.272393 -3.631177 12.245356 0.471227 0.541021 -5.640081 -6.790348 28.712439 2.830668 -8.252216 22.244375 -22.236893 -9.584892 5.601457 3.671760 -66.806968 5.834791 14.546521 68.087467 -81.556564 -36.256158 -29.351842 -18.664833 10.766219 6.003704 0.542854 5.155404 65.932331 10.241683 13.899354 -21.902103 25.376776 -11.277896 17.060214 17.741193 -18.662844 
-0.897606 0.248436 1.007470 67.304216 -2.846110 91.966745 -4.670843 -5.268157 -20.199660 -0.449430 3.489158 8.084974 3.325094 10.145380 -2.394516 0.000000 -0.000000 0.000000 1.103083 -2.854386 11.419268 1.250624 -5.345774 -2.467367 -1.422102 -9.959659 -19.816433 0.000000 -0.000000 0.000000 2.143463 6.972944 -1.750665 -0.332905 -3.523019 12.433618 0.414843 0.522120 -5.840099 -6.804792 28.890511 2.603825 -8.306873 22.335512 -22.752339 -9.383493 5.410972 3.616021 -66.741859 6.095589 15.009830 72.185962 -82.330370 -40.257758 -30.211735 -19.409657 9.607088 6.028745 0.764115 4.909470 65.982570 11.069071 14.400794 -23.428141 27.350234 -12.444888 17.157484 18.175408 -19.184516 
-0.892339 0.246181 1.008638 65.834051 -3.932857 91.367297 -5.799049 -4.438716 -16.797672 -0.705327 3.727999 3.919891 3.528559 10.086712 -1.539261 0.000000 -0.000000 0.000000 -0.483489 -2.732004 12.096716 1.168725 -4.727965 -1.740671 -0.803517 -9.051123 -20.648969 0.000000 -0.000000 0.000000 0.611970 7.111490 -1.953849 -0.506538 -2.833322 14.016706 0.496718 0.578492 -6.600688 -6.631750 28.863654 2.521652 -8.424316 22.198409 -23.703683 -9.077422 5.222659 3.529085 -66.724645 5.889301 15.722209 76.035368 -82.629870 -43.865262 -30.639239 -19.987475 8.913975 6.291073 0.927571 5.010441 66.078765 11.514574 15.342553 -24.874392 29.147752 -13.071443 17.236500 18.565307 -18.827499 
-0.889571 0.246547 1.008700 66.344881 -3.956260 91.755731 -5.875234 -4.217647 -16.085680 -1.030324 3.464204 2.014147 2.982004 9.343957 -1.193085 0.000000 -0.000000 0.000000 -0.430358 -2.701043 11.206165 0.993969 -5.235191 -0.405014 -0.567658 -9.003484 -21.680365 0.000000 -0.000000 0.000000 0.613865 6.549408 -2.134772 -0.773515 -3.058041 13.651264 0.410152 0.455826 -6.425202 -7.032036 28.622762 2.177667 -8.285066 22.123119 -24.556255 -8.971407 4.675861 3.406376 -67.107498 5.749506 15.896565 81.925881 -82.667451 -49.622311 -31.088853 -20.248213 9.043098 5.987065 1.067467 4.982723 66.436492 11.304911 15.479296 -25.526267 31.057041 -12.437487 17.724778 19.125812 -18.056905 
